<?xml version="1.0" encoding="UTF-8" standalone="no"?>
<!-- Created with Inkscape (http://www.inkscape.org/) -->

<svg
   width="148.84517mm"
   height="140.81982mm"
   viewBox="0 0 148.84517 140.81982"
   version="1.1"
   id="svg578"
   inkscape:version="1.2.2 (b0a8486541, 2022-12-01)"
   sodipodi:docname="dial4.svg"
   xmlns:inkscape="http://www.inkscape.org/namespaces/inkscape"
   xmlns:sodipodi="http://sodipodi.sourceforge.net/DTD/sodipodi-0.dtd"
   xmlns="http://www.w3.org/2000/svg"
   xmlns:svg="http://www.w3.org/2000/svg">
  <sodipodi:namedview
     id="namedview580"
     pagecolor="#ffffff"
     bordercolor="#000000"
     borderopacity="0.25"
     inkscape:showpageshadow="2"
     inkscape:pageopacity="0.0"
     inkscape:pagecheckerboard="0"
     inkscape:deskcolor="#d1d1d1"
     inkscape:document-units="mm"
     showgrid="false"
     inkscape:zoom="0.84340332"
     inkscape:cx="53.355256"
     inkscape:cy="366.96559"
     inkscape:window-width="1920"
     inkscape:window-height="1058"
     inkscape:window-x="0"
     inkscape:window-y="22"
     inkscape:window-maximized="1"
     inkscape:current-layer="layer1" />
  <defs
     id="defs575" />
  <g
     inkscape:label="Layer 1"
     inkscape:groupmode="layer"
     id="layer1"
     transform="translate(-30.577462,-74.077649)">
    <g
       id="g3348">
      <path
         id="rect2637"
         style="fill:#000000;fill-opacity:1;stroke:none;stroke-width:1.43486"
         d="m 30.577462,146.35799 v 4.28398 h 15.480709 a 59.018085,59.018085 0 0 1 -0.07648,-2.14199 59.018085,59.018085 0 0 1 0.07648,-2.14199 z m 133.397538,0 a 59.018085,59.018085 0 0 1 0.0429,2.14199 59.018085,59.018085 0 0 1 -0.0765,2.14199 h 15.48123 v -4.28398 z" />
      <path
         id="rect2637-7"
         style="fill:#000000;fill-opacity:1;stroke:none;stroke-width:1.43486"
         d="m 168.38094,109.43363 -13.37645,7.72304 a 59.018085,59.018085 0 0 1 2.14251,3.70986 l 13.37593,-7.72253 z m -115.510779,66.68999 -13.392984,7.73234 2.141989,3.71037 13.391428,-7.73183 a 59.018085,59.018085 0 0 1 -2.140406,-3.71089 z" />
      <path
         id="rect2637-7-5"
         style="fill:#000000;fill-opacity:1;stroke:none;stroke-width:1.43486"
         d="m 140.35629,82.976849 -7.72356,13.377478 a 59.018085,59.018085 0 0 1 3.7119,2.139947 l 7.72201,-13.374894 z" />
      <path
         id="rect2637-6"
         style="fill:#000000;fill-opacity:1;stroke:none;stroke-width:1.43486"
         d="m 41.619165,109.43363 -2.141988,3.71037 13.39298,7.73234 a 59.018085,59.018085 0 0 1 2.140238,-3.711 z m 115.510255,66.68998 a 59.018085,59.018085 0 0 1 -2.14023,3.711 l 13.39194,7.73183 2.142,-3.71036 z" />
      <path
         id="rect2637-6-5"
         style="fill:#000000;fill-opacity:1;stroke:none;stroke-width:1.43486"
         d="m 69.643809,82.976844 -3.710367,2.142505 7.726146,13.382653 a 59.018085,59.018085 0 0 1 3.717097,-2.131634 z" />
      <path
         id="rect2637-3"
         style="fill:#000000;fill-opacity:1;stroke:none;stroke-width:1.93389"
         d="m 101.10856,74.077649 v 15.53807 a 59.018085,59.018085 0 0 1 3.89123,-0.133842 59.018085,59.018085 0 0 1 3.89175,0.130224 V 74.077649 Z" />
      <path
         id="rect2637-3-2"
         style="fill:#000000;fill-opacity:1;stroke:none;stroke-width:1.93389"
         d="m 72.195077,197.5373 -7.776273,13.46894 6.739642,3.89124 7.779889,-13.47515 a 59.018085,59.018085 45 0 1 -6.743213,-3.88511 z" />
      <path
         id="rect2637-3-6"
         style="fill:#000000;fill-opacity:1;stroke:none;stroke-width:1.93389"
         d="m 137.80503,197.5373 a 59.018085,59.018085 0 0 1 -6.74383,3.88546 l 7.77989,13.47463 6.74015,-3.89124 z" />
    </g>
  </g>
</svg>
