<?xml version="1.0" encoding="UTF-8" standalone="no"?>
<!-- Created with Inkscape (http://www.inkscape.org/) -->

<svg
   width="154.91373mm"
   height="143.5318mm"
   viewBox="0 0 154.91373 143.5318"
   version="1.1"
   id="svg578"
   inkscape:version="1.2.2 (b0a8486541, 2022-12-01)"
   sodipodi:docname="dial2.svg"
   inkscape:export-filename="dial export.svg"
   inkscape:export-xdpi="96"
   inkscape:export-ydpi="96"
   xmlns:inkscape="http://www.inkscape.org/namespaces/inkscape"
   xmlns:sodipodi="http://sodipodi.sourceforge.net/DTD/sodipodi-0.dtd"
   xmlns="http://www.w3.org/2000/svg"
   xmlns:svg="http://www.w3.org/2000/svg">
  <sodipodi:namedview
     id="namedview580"
     pagecolor="#ffffff"
     bordercolor="#000000"
     borderopacity="0.25"
     inkscape:showpageshadow="2"
     inkscape:pageopacity="0.0"
     inkscape:pagecheckerboard="0"
     inkscape:deskcolor="#d1d1d1"
     inkscape:document-units="mm"
     showgrid="false"
     inkscape:zoom="0.77593294"
     inkscape:cx="141.76483"
     inkscape:cy="308.66069"
     inkscape:window-width="1920"
     inkscape:window-height="1058"
     inkscape:window-x="0"
     inkscape:window-y="22"
     inkscape:window-maximized="1"
     inkscape:current-layer="g2701" />
  <defs
     id="defs575" />
  <g
     inkscape:label="Layer 1"
     inkscape:groupmode="layer"
     id="layer1"
     transform="translate(-27.543188,-72.542859)">
    <g
       id="g2701"
       inkscape:export-filename="dial export.svg"
       inkscape:export-xdpi="96"
       inkscape:export-ydpi="96">
      <g
         id="g3139">
        <path
           id="rect634"
           style="fill:#000000;stroke:#ffffff;stroke-width:3;stroke-dasharray:none;stroke-opacity:1"
           d="m 29.043188,144.91157 v 7.17682 h 18.987989 a 57.103226,57.103226 0 0 1 -0.134359,-3.58841 57.103226,57.103226 0 0 1 0.134359,-3.58841 z m 132.942792,0 a 57.103226,57.103226 0 0 1 0.1173,3.58841 57.103226,57.103226 0 0 1 -0.13436,3.58841 h 18.98799 v -7.17682 z" />
        <path
           id="rect634-3"
           style="fill:#000000;stroke-width:0.182627"
           d="m 72.542859,-101.4119 h 18.971452 a 57.103226,57.103226 0 0 1 -0.117306,-3.58789 57.103226,57.103226 0 0 1 0.114722,-3.58841 H 72.542859 Z"
           transform="rotate(90)" />
        <path
           id="rect634-3-3"
           style="fill:#000000;stroke:#ffffff;stroke-width:3;stroke-dasharray:none;stroke-opacity:1"
           d="m 89.225806,72.516594 -9.4e-5,7.176661 18.987878,6.2e-5 a 57.103226,57.103226 45 0 1 1e-4,-7.176662 z m 132.926004,-4.52e-4 a 57.103226,57.103226 45 0 1 -1e-4,7.176661 l 18.98789,6.2e-5 -3.6e-4,-7.176403 z"
           transform="rotate(30)" />
        <path
           id="rect634-3-5"
           style="fill:#000000;stroke:#ffffff;stroke-width:3;stroke-dasharray:none;stroke-opacity:1"
           d="m -92.639617,-177.51664 18.970958,3.1e-4 a 57.103226,57.103226 45 0 1 -9.3e-5,-7.17666 l -18.970511,-6e-5 z m 132.926002,4.5e-4 18.987882,-6e-5 -9.3e-5,-7.17667 -18.987882,7e-5 a 57.103226,57.103226 45 0 1 9.3e-5,7.17666 z"
           transform="rotate(150)" />
        <path
           id="rect634-3-7"
           style="fill:#000000;stroke:#ffffff;stroke-width:3;stroke-dasharray:none;stroke-opacity:1"
           d="m 105.14789,-20.270895 9e-5,7.176662 18.98788,-6.2e-5 a 57.103226,57.103226 0 0 1 0.003,-7.176712 z"
           transform="rotate(60)" />
        <path
           id="rect634-3-7-6"
           style="fill:#000000;stroke-width:0.204727"
           d="m 238.0737,-20.271149 a 57.103226,57.103226 0 0 1 -0.003,7.176713 l 18.99089,-1.13e-4 -9e-5,-7.176661 z"
           transform="rotate(60)" />
        <path
           id="rect634-3-6"
           style="fill:#000000;stroke:#ffffff;stroke-width:3;stroke-dasharray:none;stroke-opacity:1"
           d="m 0.14783502,-161.59453 18.96935798,2e-5 a 57.103226,57.103226 0 0 1 9.3e-5,-7.17666 l -18.96935775,-2e-5 z"
           transform="rotate(120)" />
        <path
           id="rect634-3-6-5"
           style="fill:#000000;stroke:none;stroke-width:3.005;stroke-dasharray:none;stroke-opacity:1"
           d="m 133.08801,-161.59421 h 18.97352 l 9e-5,-7.17666 H 133.0881 a 57.103226,57.103226 0 0 1 -9e-5,7.17666 z"
           transform="rotate(120)" />
      </g>
    </g>
  </g>
</svg>
