<?xml version="1.0" encoding="UTF-8" standalone="no"?>
<!-- Created with Inkscape (http://www.inkscape.org/) -->

<svg
   width="9.1094513mm"
   height="3.3094368mm"
   viewBox="0 0 9.1094513 3.3094368"
   version="1.1"
   id="svg5"
   xml:space="preserve"
   inkscape:version="1.2.2 (b0a8486, 2022-12-01)"
   sodipodi:docname="lfo wave labels.svg"
   xmlns:inkscape="http://www.inkscape.org/namespaces/inkscape"
   xmlns:sodipodi="http://sodipodi.sourceforge.net/DTD/sodipodi-0.dtd"
   xmlns="http://www.w3.org/2000/svg"
   xmlns:svg="http://www.w3.org/2000/svg"><sodipodi:namedview
     id="namedview7"
     pagecolor="#ffffff"
     bordercolor="#000000"
     borderopacity="0.25"
     inkscape:showpageshadow="2"
     inkscape:pageopacity="0.0"
     inkscape:pagecheckerboard="0"
     inkscape:deskcolor="#d1d1d1"
     inkscape:document-units="mm"
     showgrid="false"
     inkscape:zoom="1.3933055"
     inkscape:cx="368.90689"
     inkscape:cy="56.340838"
     inkscape:window-width="1920"
     inkscape:window-height="1025"
     inkscape:window-x="0"
     inkscape:window-y="27"
     inkscape:window-maximized="0"
     inkscape:current-layer="layer1" /><defs
     id="defs2" /><g
     inkscape:label="Layer 1"
     inkscape:groupmode="layer"
     id="layer1"
     transform="translate(-174.6428,-33.299159)"><path
       style="fill:#ff0000;stroke-width:0.106684"
       d="m 174.64619,34.473371 h 0.14212 v -1.174212 h 1.28927 v 1.878063 h 0.1252 v -0.152275 h 0.15228 v -0.541424 h 0.43652 v 0.399301 h 0.56511 v 1.421237 h 0.14551 v -1.143758 h 0.26394 v -0.984715 h 0.42637 v -0.422986 h 0.14889 v -0.135357 h 0.13198 v -0.155659 h 0.16242 v 0.152276 h 0.13198 v -0.291016 l 0.44195,0.01354 v 0.131972 h 0.14346 v 1.705485 h 0.12521 v -1.559977 h 0.14889 V 33.46159 h 0.15227 v -0.131971 h 0.71401 v 0.280863 h 0.55834 v 0.845974 h 0.40945 v -1.147141 h 0.45344 v 0.165811 h 0.14889 v 1.55321 h 0.13536 v 0.142123 h 0.13874 v 0.142124 h 0.13535 v 0.568495 h 0.12859 v 0.159043 h 0.14551 v -2.294283 h 0.45006 v 0.13874 h 0.1455 v 1.563361 h 0.13536 v 0.856126 h 0.2741 v 0.287631 h -0.55496 v -0.825671 h -0.14212 v 0.700467 h -0.56512 V 36.3379 h -0.15904 v -0.148892 h -0.14889 v -0.55496 h -0.13536 v -0.297783 h -0.28763 v -0.148891 h -0.38915 v 0.835822 h -0.16919 v 0.15566 h -0.42299 v -1.84084 h -0.45006 v -0.145508 h -0.14212 v -0.575263 h -0.10829 v 0.148892 h -0.27071 v 2.832323 h -0.46697 v -0.131973 l -0.12993,-0.0034 v -0.98133 h -0.13402 v 0.534656 h -0.42299 v 0.148891 h -0.13874 v 0.433139 h -0.43314 V 35.48514 h -0.27748 v 1.123455 h -0.7343 v -0.27748 h -0.57865 v -0.852742 h -0.1252 v 0.707235 h -0.57865 v -2.277364 h -0.42637 v -0.135356 h -0.14551 V 33.62738 h -0.1252 v 1.116687 h -0.44668 z"
       id="path63091" /></g></svg>
